# AST/ASF file generated using VICON BodyLanguage
# -----------------------------------------------
:version 1.10
:name VICON
:units
  mass 1.0
  length 0.45
  angle deg
:documentation
   .ast/.asf automatically generated from VICON data using
   VICON BodyBuilder and BodyLanguage model FoxedUp or BRILLIANT.MOD
:root
   order TX TY TZ RX RY RZ
   axis XYZ
   position 0 0 0  
   orientation 0 0 0 
:bonedata
  begin
     id 1 
     name lhipjoint
     direction 0.722297 -0.617336 0.311742 
     length 2.6635 
     axis 0 0 0  XYZ
  end
  begin
     id 2 
     name lfemur
     direction 0.34202 -0.939693 0  
     length 7.39349  
     axis 0 0 20  XYZ
    dof rx ry rz
    limits (-160.0 20.0)
           (-70.0 70.0)
           (-60.0 70.0)
  end
  begin
     id 3 
     name ltibia
     direction 0.34202 -0.939693 0   
     length 7.36294   
     axis 0 0 20   XYZ
    dof rx
    limits (-10.0 170.0)
  end
  begin
     id 4 
     name lfoot
     direction 0.104879 -0.288152 0.951824   
     length 2.16981   
     axis -90 7.62852e-016 20   XYZ
    dof rx rz
    limits (-45.0 90.0)
           (-70.0 20.0)
  end
  begin
     id 5 
     name ltoes
     direction 1.53586e-011 -4.21895e-011 1   
     length 1.08218   
     axis -90 7.62852e-016 20   XYZ
    dof rx
    limits (-90.0 20.0)
  end
  begin
     id 6 
     name rhipjoint
     direction -0.75102 -0.589393 0.297631   
     length 2.78977  
     axis 0 0 0  XYZ 
  end
  begin
     id 7 
     name rfemur
     direction -0.34202 -0.939693 0   
     length 7.46076   
     axis 0 0 -20   XYZ
    dof rx ry rz
    limits (-160.0 20.0)
           (-70.0 70.0)
           (-70.0 60.0)
  end
  begin
     id 8 
     name rtibia
     direction -0.34202 -0.939693 0   
     length 7.31726   
     axis 0 0 -20   XYZ
    dof rx
    limits (-10.0 170.0)
 end
 begin
     id 9 
     name rfoot
     direction -0.107991 -0.296704 0.948844   
     length 2.09388  
     axis -90 -7.62852e-016 -20   XYZ
    dof rx rz
    limits (-45.0 90.0)
           (-20.0 70.0)
  end
  begin
     id 10 
     name rtoes
     direction -1.53559e-011 -4.21911e-011 1   
     length 1.04433   
     axis -90 -7.62852e-016 -20   XYZ
    dof rx
    limits (-90.0 20.0)
  end
  begin
     id 11 
     name lowerback
     direction 0.0165164 0.98272 0.184358   
     length 1.71896   
     axis 0 0 0   XYZ
    dof rx ry rz
    limits (-20.0 45.0)
           (-30.0 30.0)
           (-30.0 30.0)
  end
  begin
     id 12 
     name upperback
     direction -0.00887249 0.992297 0.123566   
     length 1.71504   
     axis 0 0 0   XYZ
    dof rx ry rz
    limits (-20.0 45.0)
           (-30.0 30.0)
           (-30.0 30.0)
  end
  begin
     id 13 
     name thorax
     direction -0.0157026 0.998908 0.0440032   
     length 1.77022   
     axis 0 0 0   XYZ
    dof rx ry rz
    limits (-20.0 45.0)
           (-30.0 30.0)
           (-30.0 30.0)
  end
  begin
     id 14 
     name lowerneck
     direction -0.0238856 0.998137 0.0561411   
     length 1.89341   
     axis 0 0 0   XYZ
    dof rx ry rz
    limits (-20.0 45.0)
           (-30.0 30.0)
           (-30.0 30.0)
  end
  begin
     id 15 
     name upperneck
     direction 0.0276574 0.952253 -0.304056   
     length 1.86999   
     axis 0 0 0   XYZ
    dof rx ry rz
    limits (-20.0 45.0)
           (-30.0 30.0)
           (-30.0 30.0)
  end
  begin
     id 16
     name head
     direction 0.00800083 0.994258 -0.106712  
     length 1.91492  
     axis 0 0 0   XYZ
    dof rx ry rz
    limits (-20.0 45.0)
           (-30.0 30.0)
           (-30.0 30.0)
  end
  begin
     id 17 
     name lclavicle
     direction 0.97203 0.225407 0.06595  
     length 3.34889  
     axis 0 0 0   XYZ
    dof ry rz
    limits (-20.0 10.0)
           (0.0 20.0)
  end
  begin
     id 18 
     name lhumerus
     direction 1 -4.48973e-011 2.20267e-027   
     length 4.85645   
     axis 180 -30 -90   XYZ
    dof rx ry rz
    limits (-60.0 90.0)
           (-90.0 90.0)
           (-90.0 90.0)
  end
  begin
     id 19
     name lradius
     direction 1 -4.4897e-011 4.60472e-027   
     length 2.79874   
     axis 180 -30 -90   XYZ
    dof rx
    limits (-10.0 170.0)
  end
  begin
     id 20
     name lwrist
     direction 1 -4.48952e-011 1.14928e-026   
     length 1.39937   
     axis -6.29373e-015 90 90   XYZ
    dof ry
    limits (-180.0 0.0)
 end
  begin
     id 21 
     name lhand
     direction 1 -4.48967e-011 2.29886e-026   
     length 0.573398   
     axis -1.46689e-014 90 90   XYZ
    dof rx rz
    limits (-90.0 90.0)
           (-45.0 45.0)
  end
  begin
     id 22 
     name lfingers
     direction 1 -4.48955e-011 4.59726e-026   
     length 0.462289   
     axis -2.93383e-014 90 90   XYZ
    dof rx
    limits (0.0 90.0)
  end
  begin
     id 23
     name lthumb
     direction 0.707107 -6.34866e-011 0.707107   
     length 0.663757   
     axis -90 45 5.69224e-014   XYZ
    dof rx rz
    limits (-45.0 45.0)
           (-45.0 45.0)
  end
  begin
     id 24 
     name rclavicle
     direction -0.981571 0.157346 0.108443   
     length 3.35257  
     axis 0 0 0   XYZ 
    dof ry rz
    limits (-10.0 20.0)
           (-20.0 0.0)
  end
  begin
     id 25 
     name rhumerus
     direction -1 -4.48967e-011 8.58308e-029  
     length 4.67018   
     axis 180 30 90   XYZ
    dof rx ry rz
    limits (-90.0 60.0)
           (-90.0 90.0)
           (-90.0 90.0)
  end
  begin
     id 26 
     name rradius
     direction -1 -4.48958e-011 4.52548e-027   
     length 2.65534   
     axis 180 30 90   XYZ
    dof rx
    limits (-10.0 170.0)
  end
  begin
     id 27 
     name rwrist
     direction -1 -4.48977e-011 1.14952e-026   
     length 1.32767   
     axis -6.29373e-015 -90 -90   XYZ
    dof ry
    limits (-180.0 0.0)
  end
  begin
     id 28
     name rhand
     direction -1 -4.48924e-011 2.29804e-026   
     length 0.594069   
     axis -1.46689e-014 -90 -90   XYZ
    dof rx rz
    limits (-90.0 90.0)
           (-45.0 45.0)
  end
  begin
     id 29
     name rfingers
     direction -1 -4.48998e-011 4.59888e-026   
     length 0.478954   
     axis -2.93383e-014 -90 -90   XYZ
    dof rx
    limits (0.0 90.0)
  end
  begin
     id 30
     name rthumb
     direction -0.707107 -6.34933e-011 0.707107   
     length 0.687685   
     axis -90 -45 -5.69224e-014   XYZ
    dof rx rz
    limits (-45.0 45.0)
           (-45.0 45.0)
  end
:hierarchy
  begin
    root lhipjoint rhipjoint lowerback
    lhipjoint lfemur
    lfemur ltibia
    ltibia lfoot
    lfoot ltoes
    rhipjoint rfemur
    rfemur rtibia
    rtibia rfoot
    rfoot rtoes
    lowerback upperback
    upperback thorax
    thorax lowerneck lclavicle rclavicle
    lowerneck upperneck
    upperneck head
    lclavicle lhumerus
    lhumerus lradius
    lradius lwrist
    lwrist lhand lthumb
    lhand lfingers
    rclavicle rhumerus
    rhumerus rradius
    rradius rwrist
    rwrist rhand rthumb
    rhand rfingers
  end

#!OML:ASF E:\pregnant2\Project 1\Capture day 1\Session 1\pregnant2.ASF
:FULLY-SPECIFIED
:DEGREES
51
root 4.76278 16.5461 42.7876 -151.201 -1.34774 179.905
lowerback -6.81173 0.886074 -5.06807
upperback -18.0287 -2.62404 2.59165
thorax -16.2122 -1.90979 6.42029
lowerneck -9.16431 -6.10433 -7.27244
upperneck 37.8552 -2.95788 0.346991
head 14.8711 -0.579097 1.42972
rclavicle -1.5704e-014 1.82882e-014
rhumerus -53.2534 8.95187 -75.6807
rradius 37.0582
rwrist 9.9536
rhand -7.42918 -15.1586
rfingers 7.12502
rthumb 18.458 -44.3029
lclavicle -1.5704e-014 1.82882e-014
lhumerus -53.1736 -5.80901 95.2688
lradius 55.6298
lwrist -11.8185
lhand 0.557218 27.3126
lfingers 7.12502
lthumb 26.124 55.5355
rfemur -55.2143 11.4942 15.0729
rtibia 33.4588
rfoot -8.45865 -14.8741
rtoes 4.6294
lfemur -26.8695 -8.43655 -21.5705
ltibia 31.1758
lfoot -19.2082 20.1839
ltoes -27.2476
52
root 4.79675 16.5466 42.6915 -151.17 -1.22741 179.961
lowerback -6.80322 0.879475 -5.05905
upperback -18.0237 -2.63787 2.5713
thorax -16.2091 -1.92139 6.39297
lowerneck -9.16622 -6.11861 -7.23459
upperneck 37.8617 -3.01781 0.398605
head 14.8761 -0.596052 1.43477
rclavicle 1.44119e-014 -2.74323e-014
rhumerus -53.2316 8.7896 -75.9235
rradius 36.9107
rwrist 10.0411
rhand -7.5789 -15.2409
rfingers 7.12502
rthumb 18.314 -44.3988
lclavicle 1.44119e-014 -2.74323e-014
lhumerus -53.1421 -5.3751 94.8373
lradius 54.5607
lwrist -11.1884
lhand 0.0410326 27.405
lfingers 7.12502
lthumb 25.6297 55.7001
rfemur -55.0167 11.272 15.6581
rtibia 33.7379
rfoot -8.6468 -14.3507
rtoes 4.7816
lfemur -27.1464 -7.85039 -21.5368
ltibia 32.3124
lfoot -19.0547 19.6017
ltoes -27.9888
53
root 4.83174 16.5501 42.5951 -151.127 -1.13201 179.964
lowerback -6.80823 0.860139 -5.09745
upperback -18.0206 -2.67152 2.53453
thorax -16.1987 -1.93769 6.3737
lowerneck -9.16539 -6.12848 -7.18266
upperneck 37.8775 -3.07017 0.451093
head 14.884 -0.606037 1.43949
rclavicle -8.05078e-015 1.94809e-014
rhumerus -53.2153 8.58145 -76.1622
rradius 36.7465
rwrist 10.1256
rhand -7.76148 -15.3371
rfingers 7.12502
rthumb 18.1383 -44.5114
lclavicle -8.05078e-015 1.94809e-014
lhumerus -53.0948 -4.95183 94.3917
lradius 53.4499
lwrist -10.4671
lhand -0.460524 27.5158
lfingers 7.12502
lthumb 25.1492 55.8792
rfemur -54.8155 11.1706 16.0692
rtibia 33.9817
rfoot -8.91891 -14.0514
rtoes 4.96749
lfemur -27.4921 -7.1715 -21.5548
ltibia 33.5184
lfoot -18.8167 18.838
ltoes -28.7205
54
root 4.86732 16.5556 42.4985 -151.076 -1.05841 179.923
lowerback -6.82111 0.832328 -5.17533
upperback -18.0185 -2.71851 2.48218
thorax -16.1842 -1.95624 6.35886
lowerneck -9.17027 -6.13851 -7.12818
upperneck 37.9137 -3.11847 0.510323
head 14.9031 -0.610919 1.44808
rclavicle 2.8128e-014 -3.10104e-014
rhumerus -53.2048 8.32419 -76.3944
rradius 36.5641
rwrist 10.1967
rhand -7.97958 -15.4508
rfingers 7.12502
rthumb 17.9285 -44.6444
lclavicle 2.8128e-014 -3.10104e-014
lhumerus -53.0287 -4.54135 93.9359
lradius 52.295
lwrist -9.65247
lhand -0.960404 27.63
lfingers 7.12502
lthumb 24.6702 56.0598
rfemur -54.6141 11.186 16.318
rtibia 34.2051
rfoot -9.26206 -13.9487
rtoes 5.162
lfemur -27.9199 -6.40163 -21.6181
ltibia 34.8198
lfoot -18.4905 17.8937
ltoes -29.4156
55
root 4.90282 16.562 42.4021 -151.022 -1.00746 179.845
lowerback -6.83512 0.799509 -5.2719
upperback -18.0166 -2.77315 2.41474
thorax -16.1688 -1.97688 6.33737
lowerneck -9.17965 -6.15398 -7.0922
upperneck 37.9719 -3.16919 0.586072
head 14.9355 -0.61521 1.46736
rclavicle -1.2921e-015 -1.27222e-014
rhumerus -53.1957 8.01614 -76.6188
rradius 36.3586
rwrist 10.2446
rhand -8.23362 -15.5759
rfingers 7.12502
rthumb 17.684 -44.7918
lclavicle -1.2921e-015 -1.27222e-014
lhumerus -52.938 -4.1366 93.4667
lradius 51.0905
lwrist -8.76208
lhand -1.47036 27.7298
lfingers 7.12502
lthumb 24.1813 56.2254
rfemur -54.4143 11.3021 16.429
rtibia 34.4255
rfoot -9.67151 -14.0083
rtoes 5.36239
lfemur -28.4429 -5.53159 -21.7207
ltibia 36.2451
lfoot -18.0798 16.7627
ltoes -30.0313
